<?xml version="1.0" encoding="UTF-8"?>
<!DOCTYPE svg PUBLIC "-//W3C//DTD SVG 1.1//EN" "http://www.w3.org/Graphics/SVG/1.1/DTD/svg11.dtd">
<!-- Creator: CorelDRAW -->
<svg xmlns="http://www.w3.org/2000/svg" xml:space="preserve" width="38.0998mm" height="13.5466mm" version="1.1" style="shape-rendering:geometricPrecision; text-rendering:geometricPrecision; image-rendering:optimizeQuality; fill-rule:evenodd; clip-rule:evenodd"
viewBox="0 0 38.0998 13.5466"
 xmlns:xlink="http://www.w3.org/1999/xlink"
 xmlns:xodm="http://www.corel.com/coreldraw/odm/2003">
 <defs>
  <style type="text/css">
   <![CDATA[
    .fil3 {fill:#2F3359}
    .fil0 {fill:#363B66}
    .fil4 {fill:#4476BB}
    .fil5 {fill:#4DBCEF}
    .fil1 {fill:url(#id0)}
    .fil2 {fill:url(#id1);fill-rule:nonzero}
   ]]>
  </style>
  <linearGradient id="id0" gradientUnits="userSpaceOnUse" x1="17.7664" y1="4.6834" x2="37.1308" y2="4.6834">
   <stop offset="0" style="stop-opacity:1; stop-color:#363B66"/>
   <stop offset="1" style="stop-opacity:1; stop-color:#4DBCEF"/>
  </linearGradient>
  <linearGradient id="id1" gradientUnits="userSpaceOnUse" xlink:href="#id0" x1="18.0251" y1="9.8979" x2="36.916" y2="9.8979">
  </linearGradient>
 </defs>
 <g id="Camada_x0020_1">
  <metadata id="CorelCorpID_0Corel-Layer"/>
  <path class="fil0" d="M2.5191 1.1796c-0.1585,0.1584 -0.317,0.3169 -0.4596,0.507 -0.1426,0.1901 -0.2692,0.412 -0.3643,0.5862 -0.0951,0.1743 -0.1585,0.301 -0.2218,0.4595 -0.0634,0.1584 -0.1269,0.3486 -0.1902,0.5863 -0.0633,0.2375 -0.1267,0.5227 -0.1623,0.7887 -0.0357,0.2659 -0.0436,0.5124 -0.0436,0.7343 0,0.2218 0.0079,0.4188 0.0277,0.5965 0.0198,0.1777 0.0515,0.3362 0.0831,0.4946 0,0.5387 0,1.0773 0,1.616 0.2898,0 0.5796,0 0.8694,0 0.0478,0.1922 0.0956,0.3845 0.1726,0.5746 0.0769,0.1901 0.183,0.3781 0.289,0.5662 -0.2536,0.2535 -0.5071,0.5069 -0.7606,0.7604 0.2218,0.3486 0.4436,0.6972 0.6655,1.0458 0.3168,-0.1585 0.6338,-0.317 0.9506,-0.4754 0.0951,0.1584 0.1901,0.3169 0.3169,0.4754 0.1267,0.1584 0.2851,0.3168 0.4436,0.4752 -0.1268,0.2852 -0.2536,0.5704 -0.3803,0.8556 0.3486,0.2219 0.6971,0.4436 1.0457,0.6655 0.2536,-0.2852 0.507,-0.5704 0.7605,-0.8556 0.1901,0.0633 0.3803,0.1268 0.5545,0.1743 0.1743,0.0475 0.3327,0.0792 0.4911,0.1109 0.0635,0.3485 0.1268,0.6971 0.1902,1.0456 0.3803,0 0.7605,0 1.1408,0 0.0633,-0.3485 0.1267,-0.6971 0.19,-1.0456 0.2219,-0.0317 0.4437,-0.0634 0.618,-0.1109 0.1743,-0.0475 0.3009,-0.111 0.4277,-0.1743 0.2535,0.2852 0.507,0.5704 0.7606,0.8556 0.3485,-0.2219 0.6971,-0.4436 1.0456,-0.6655 -0.1268,-0.3169 -0.2535,-0.6338 -0.3803,-0.9507 0.1584,-0.1267 0.317,-0.2534 0.4596,-0.396 0.1426,-0.1426 0.2692,-0.3011 0.396,-0.4595 0.3168,0.1268 0.6338,0.2535 0.9506,0.3803 0.1901,-0.3169 0.3803,-0.6338 0.5704,-0.9507 -0.2535,-0.2217 -0.5069,-0.4436 -0.7605,-0.6653 0.0634,-0.2219 0.1268,-0.4436 0.1743,-0.6338 0.0475,-0.1901 0.0793,-0.3485 0.1109,-0.507 -0.8555,0.2535 -1.7111,0.507 -2.5666,0.7605 -0.3169,0.2218 -0.6339,0.4436 -1.014,0.602 -0.3803,0.1585 -0.8239,0.2535 -1.2041,0.3169 -0.3803,0.0634 -0.6972,0.0951 -1.1408,0.0633 -0.4436,-0.0317 -1.014,-0.1267 -1.5209,-0.2851 -0.5071,-0.1584 -0.9507,-0.3803 -1.3468,-0.6496 -0.3961,-0.2693 -0.7446,-0.5862 -1.0773,-0.9982 -0.3328,-0.4119 -0.6497,-0.9188 -0.8397,-1.3941 -0.1902,-0.4754 -0.2536,-0.919 -0.2694,-1.4101 -0.0159,-0.4912 0.0158,-1.0298 0.1268,-1.5051 0.1108,-0.4754 0.301,-0.8873 0.4594,-1.2042 0.1584,-0.3169 0.2852,-0.5387 0.412,-0.7605z"/>
  <path class="fil1" d="M29.1908 2.8201c0.7063,0.003 1.4126,0.006 2.119,0.009 0.2455,0.2486 0.4911,0.4972 0.6199,0.6443 0.1289,0.147 0.141,0.1924 -0.0243,0.6866 -0.1651,0.4941 -0.5077,1.4368 -0.8503,2.3796 -0.4345,-0.0057 -0.869,-0.0116 -1.3035,-0.0173 0.0889,-0.2304 0.178,-0.4609 0.2669,-0.6913 -0.4335,0.0028 -0.8671,0.0055 -1.3006,0.0083 -0.1152,-0.1243 -0.2304,-0.2486 -0.3456,-0.3729 -0.1637,0.3577 -0.3273,0.7155 -0.491,1.0732 -0.4532,-0.0011 -0.9063,-0.0022 -1.3595,-0.0033 0.5138,-1.0387 1.0276,-2.0773 1.5414,-3.116 0.3759,-0.2001 0.7517,-0.4002 1.1276,-0.6002zm-0.5902 2.2089c0.199,-0.436 0.3981,-0.8721 0.5327,-1.0932 0.1347,-0.2213 0.2051,-0.228 0.2755,-0.2345 0.3879,0.0006 0.7757,0.001 1.1637,0.0016 0.0514,0.0109 0.1028,0.0218 0.1211,0.0649 0.0183,0.0431 0.0034,0.1184 -0.064,0.3303 -0.0674,0.2119 -0.1874,0.5603 -0.3073,0.9087 -0.5738,0.0074 -1.1478,0.0148 -1.7217,0.0222zm4.6773 -2.2275c1.2843,0.004 2.5686,0.0078 3.8529,0.0117 -0.1012,0.2842 -0.2024,0.5682 -0.3036,0.8524 -0.86,-0.0117 -1.7202,-0.0233 -2.5802,-0.035 -0.0662,0.2102 -0.1324,0.4202 -0.1986,0.6304 0.7823,0 1.5646,0 2.3469,0 -0.1012,0.2841 -0.2025,0.5683 -0.3036,0.8523 -0.7862,-0.0039 -1.5724,-0.0077 -2.3585,-0.0117 -0.109,0.3542 -0.218,0.7084 -0.327,1.0625 -0.2179,0.1207 -0.4358,0.2413 -0.6538,0.362 -0.284,-0.0077 -0.5682,-0.0156 -0.8523,-0.0233 0.4592,-1.2338 0.9186,-2.4676 1.3778,-3.7013zm-10.0944 0.0114c1.3264,0.0045 2.6529,0.0088 3.9793,0.0133 -0.0979,0.2916 -0.1958,0.5831 -0.2937,0.8747 -0.9014,-0.0134 -1.8027,-0.0268 -2.7041,-0.0401 -0.0623,0.2003 -0.1246,0.4007 -0.1869,0.601 0.81,0 1.6202,0 2.4303,0 -0.1024,0.2826 -0.2048,0.5653 -0.3072,0.8479 -0.8145,-0.0088 -1.6291,-0.0178 -2.4437,-0.0267 -0.0467,0.1425 -0.0935,0.2849 -0.1402,0.4273 0.069,0.0668 0.138,0.1335 0.207,0.2003 0.8035,-0.0022 1.6068,-0.0043 2.4103,-0.0066 -0.0979,0.2871 -0.1958,0.5742 -0.2937,0.8613 -0.9904,-0.0111 -1.9808,-0.0222 -2.9712,-0.0334 -0.2448,-0.2025 -0.4897,-0.4051 -0.7344,-0.6076 0.0088,-0.0979 0.0177,-0.1959 0.0266,-0.2938 0.3405,-0.9392 0.681,-1.8784 1.0216,-2.8176zm-4.3888 0.0293c0.4492,-0.0067 0.8984,-0.0134 1.3476,-0.02 -0.336,0.8818 -0.6722,1.7636 -1.0082,2.6455 0.0798,0.0698 0.1596,0.1398 0.2395,0.2096 0.6788,-0.0034 1.3576,-0.0066 2.0365,-0.01 -0.1032,0.2894 -0.2063,0.579 -0.3095,0.8685 -0.8718,0.0033 -1.7436,0.0066 -2.6155,0.01 -0.2396,-0.2063 -0.4791,-0.4127 -0.7187,-0.6189 0,-0.0998 0,-0.1998 0,-0.2996 0.3428,-0.9284 0.6855,-1.8567 1.0283,-2.7851z"/>
  <path class="fil2" d="M18.0251 11.0921l0 -2.3884 1.1719 0 0 0.2543 -1.0138 -0.0103 0.1341 -0.1306 -0.0241 1.0241 -0.1272 -0.0859 0.9485 0 0 0.244 -0.9485 0 0.1272 -0.0997 0.0241 1.0757 -0.1341 -0.1306 1.0138 -0.0069 0 0.2543 -1.1719 0zm1.7664 0l0 -2.3884 0.3884 0 0.9725 2.0413 0.0103 0 -0.0446 -2.0413 0.2886 0 0 2.3884 -0.3883 0 -0.9725 -2.0413 -0.0104 0 0.0447 2.0413 -0.2887 0zm3.1136 0.0447c-0.1191,0 -0.2325,-0.0166 -0.3402,-0.0499 -0.1077,-0.0332 -0.2028,-0.0945 -0.2852,-0.1838 -0.0825,-0.0894 -0.1472,-0.2159 -0.1942,-0.3798 -0.047,-0.1638 -0.0705,-0.3751 -0.0705,-0.634 0,-0.2543 0.0224,-0.4622 0.067,-0.6238 0.0447,-0.1615 0.1083,-0.2863 0.1908,-0.3745 0.0825,-0.0882 0.181,-0.149 0.2955,-0.1822 0.1146,-0.0332 0.2417,-0.0498 0.3815,-0.0498 0.0733,0 0.1478,0.0029 0.2234,0.0086 0.0756,0.0057 0.146,0.0132 0.2113,0.0223 0.0653,0.0092 0.1163,0.0183 0.1529,0.0275l-0.0343 0.2474c-0.0435,-0.0045 -0.1129,-0.0131 -0.2079,-0.0257 -0.0951,-0.0126 -0.2171,-0.0189 -0.366,-0.0189 -0.1146,0 -0.2068,0.0063 -0.2767,0.0189 -0.0699,0.0126 -0.122,0.0372 -0.1563,0.0739 -0.0436,0.0435 -0.0831,0.134 -0.1186,0.2714 -0.0355,0.1375 -0.0533,0.3368 -0.0533,0.598 0,0.1993 0.0109,0.3609 0.0327,0.4846 0.0217,0.1237 0.0464,0.2171 0.0739,0.2801 0.0275,0.063 0.0515,0.1059 0.0721,0.1288 0.0275,0.0298 0.0728,0.0556 0.1358,0.0774 0.063,0.0217 0.1563,0.0326 0.2801,0.0326 0.0801,0 0.1506,-0.0046 0.2113,-0.0137 0.0607,-0.0092 0.1094,-0.0218 0.1461,-0.0378l0 -0.8867 0.1306 0.1375 -0.4949 -0.0241 0 -0.213 0.6392 0 0 1.1546c0,0 -0.0269,0.0109 -0.0808,0.0327 -0.0538,0.0218 -0.1294,0.0441 -0.2268,0.067 -0.0974,0.0229 -0.2102,0.0344 -0.3385,0.0344zm1.3265 -0.0447l0 -2.3884 1.1719 0 0 0.2543 -1.0138 -0.0103 0.1341 -0.1306 -0.0241 1.0241 -0.1272 -0.0859 0.9485 0 0 0.244 -0.9485 0 0.1272 -0.0997 0.0241 1.0757 -0.1341 -0.1306 1.0138 -0.0069 0 0.2543 -1.1719 0zm1.7664 0l0 -2.3884 0.3884 0 0.9725 2.0413 0.0103 0 -0.0446 -2.0413 0.2886 0 0 2.3884 -0.3883 0 -0.9725 -2.0413 -0.0104 0 0.0447 2.0413 -0.2887 0zm2.3369 0l0 -2.3884 0.2887 0 -0.0103 1.1409 -0.1306 -0.0962 1.2647 0 -0.1306 0.0962 -0.0069 -1.1409 0.2887 0 0 2.3884 -0.2887 0 0.0069 -1.1856 0.1306 0.0962 -1.2647 0 0.1306 -0.0962 0.0103 1.1856 -0.2887 0zm1.9417 0l0.6495 -2.3884 0.4055 0 0.6495 2.3884 -0.2955 0 -0.1822 -0.7148 0.1444 0.0825 -1.031 0 0.1375 -0.0825 -0.1822 0.7148 -0.2955 0zm0.4845 -0.7526l-0.0962 -0.134 0.9279 0 -0.0962 0.134 -0.3884 -1.5087 0.1616 0.1272 -0.2818 0 0.1615 -0.1272 -0.3884 1.5087zm1.598 0.7526l0.0172 -1.1306 -0.0103 -1.2578c0.0252,-0.0046 0.0665,-0.0092 0.1237,-0.0138 0.0573,-0.0046 0.1226,-0.0091 0.1959,-0.0137 0.0733,-0.0046 0.1484,-0.0086 0.2251,-0.0121 0.0768,-0.0034 0.1484,-0.0051 0.2148,-0.0051 0.1558,0 0.291,0.024 0.4055,0.0722 0.1146,0.0481 0.2028,0.1265 0.2646,0.2354 0.0619,0.1088 0.0928,0.2537 0.0928,0.4347 0,0.1993 -0.0435,0.3574 -0.1306,0.4742 -0.087,0.1169 -0.213,0.1948 -0.378,0.2337l0 0.0103 0.5396 0.9726 -0.3403 0 -0.4811 -0.9485 -0.4467 -0.0172 0 0.9657 -0.2922 0zm0.8008 -1.1891c0.1695,0 0.2823,-0.0406 0.3385,-0.122 0.0561,-0.0813 0.0842,-0.209 0.0842,-0.3831 0,-0.1421 -0.0121,-0.2503 -0.0361,-0.3248 -0.0241,-0.0745 -0.0567,-0.1231 -0.098,-0.1461 -0.0252,-0.016 -0.0635,-0.028 -0.1151,-0.036 -0.0515,-0.0081 -0.1071,-0.0121 -0.1667,-0.0121 -0.0939,0 -0.1895,0.0046 -0.2869,0.0138 -0.0974,0.0091 -0.1724,0.0172 -0.2251,0.024l-0.0069 0.952c0.0802,0.0091 0.1655,0.0172 0.256,0.024 0.0905,0.0069 0.1759,0.0103 0.2561,0.0103zm1.3814 1.1925l0.0104 -1.0962 -0.0104 -1.2956 0.2922 0 -0.0138 1.055 0.0138 1.3334 -0.2922 0.0034zm0.6702 -0.0034l0.6495 -2.3884 0.4055 0 0.6495 2.3884 -0.2955 0 -0.1822 -0.7148 0.1444 0.0825 -1.031 0 0.1375 -0.0825 -0.1822 0.7148 -0.2955 0zm0.4845 -0.7526l-0.0962 -0.134 0.9279 0 -0.0962 0.134 -0.3884 -1.5087 0.1616 0.1272 -0.2818 0 0.1615 -0.1272 -0.3884 1.5087z"/>
  <rect class="fil3" x="15.4656" y="0.7086" width="0.4126" height="12.3496"/>
  <path class="fil4" d="M6.1942 2.7165c0.1843,0.2276 0.3686,0.4552 0.6332,0.6722 0.2645,0.2171 0.6094,0.4234 0.9056,0.6097 0.2963,0.1862 0.5439,0.3521 0.764,0.5243 0.2202,0.1723 0.4128,0.3508 0.5795,0.5651 0.1667,0.2143 0.3076,0.4642 0.4015,0.6546 0.0939,0.1903 0.1408,0.321 0.192,0.469 0.0512,0.1479 0.1067,0.3129 0.1513,0.507 0.0447,0.1942 0.0786,0.4171 0.1126,0.6402 -0.4186,-0.061 -0.8372,-0.122 -1.2396,-0.1945 -0.4024,-0.0727 -0.7885,-0.1567 -1.1971,-0.2778 -0.4085,-0.1212 -0.8394,-0.2795 -1.2477,-0.4427 -0.4083,-0.1633 -0.7941,-0.3317 -1.0328,-0.4654 -0.2385,-0.1337 -0.3301,-0.2329 -0.4124,-0.3139 -0.0821,-0.0812 -0.1552,-0.1443 -0.1995,-0.182 -0.0442,-0.0379 -0.0596,-0.0502 -0.0738,-0.0624 -0.0142,-0.0122 -0.027,-0.024 -0.0501,-0.0442 -0.0232,-0.0202 -0.0564,-0.0487 -0.0919,-0.08 -0.0354,-0.0314 -0.0732,-0.0656 -0.131,-0.1174 -0.0577,-0.0517 -0.1357,-0.1211 -0.2137,-0.1905 0.1548,0.2046 0.3096,0.409 0.5105,0.6477 0.2008,0.2387 0.4479,0.5114 0.8014,0.8266 0.3536,0.3152 0.8136,0.6727 1.2639,0.9383 0.4505,0.2657 0.8913,0.4396 1.3315,0.5712 0.4403,0.1314 0.8802,0.2207 1.1434,0.2736 0.2632,0.0528 0.3498,0.069 0.4601,0.0896 0.1104,0.0204 0.2446,0.0449 0.3788,0.0695 -0.0213,0.0936 -0.0425,0.1871 -0.1389,0.315 -0.0965,0.128 -0.268,0.2902 -0.4326,0.4296 -0.1645,0.1395 -0.3219,0.256 -0.5044,0.3679 -0.1824,0.1121 -0.39,0.2195 -0.6027,0.3131 -0.2125,0.0936 -0.4302,0.1734 -0.6037,0.2322 -0.1734,0.0588 -0.3026,0.0965 -0.4898,0.1204 -0.1871,0.0239 -0.4325,0.0342 -0.6777,0.0443 0.196,0.0494 0.3919,0.0987 0.6488,0.1364 0.2569,0.0378 0.5746,0.0639 0.9367,0.0494 0.3621,-0.0145 0.7684,-0.0697 1.1392,-0.1474 0.3708,-0.0776 0.706,-0.1777 1.0271,-0.2899 0.3211,-0.1123 0.6279,-0.2367 0.9492,-0.3995 0.3213,-0.1627 0.6569,-0.3639 0.8607,-0.6105 0.2038,-0.2465 0.2759,-0.5387 0.3396,-0.7974 0.0639,-0.2586 0.1196,-0.484 0.1244,-0.7331 0.0049,-0.2493 -0.0413,-0.5223 -0.0963,-0.7706 -0.0549,-0.2482 -0.1187,-0.4718 -0.2078,-0.7069 -0.0892,-0.2351 -0.2035,-0.4818 -0.3939,-0.7711 -0.1903,-0.2895 -0.4567,-0.6215 -0.7463,-0.9071 -0.2895,-0.2857 -0.6023,-0.5251 -0.8997,-0.7317 -0.2973,-0.2067 -0.5794,-0.3805 -0.8615,-0.5544 0.2163,0.1987 0.4325,0.3973 0.6147,0.5686 0.1823,0.1713 0.3305,0.3151 0.4604,0.4608 0.1299,0.1458 0.2414,0.2935 0.353,0.4412 -0.1998,-0.1382 -0.3994,-0.2766 -0.5905,-0.3985 -0.1911,-0.1219 -0.3734,-0.2275 -0.5502,-0.3206 -0.1766,-0.0931 -0.3476,-0.1739 -0.5636,-0.2612 -0.216,-0.0874 -0.4772,-0.1815 -0.721,-0.2611 -0.2439,-0.0797 -0.4705,-0.145 -0.6779,-0.2007 -0.2073,-0.0557 -0.3955,-0.1017 -0.6315,-0.1509 -0.2359,-0.0493 -0.5197,-0.1017 -0.8035,-0.1541z"/>
  <path class="fil5" d="M12.5005 7.6438c0.3485,-0.0634 0.6971,-0.1267 1.0457,-0.1902 0,-0.4119 0,-0.8237 0,-1.2357 -0.3486,-0.0317 -0.6972,-0.0634 -1.0457,-0.0951 -0.0327,-0.1901 -0.0654,-0.3803 -0.1129,-0.5704 -0.0475,-0.19 -0.11,-0.3802 -0.1723,-0.5703 0.2536,-0.2219 0.507,-0.4436 0.7605,-0.6655 -0.1901,-0.3485 -0.3803,-0.6971 -0.5704,-1.0456 -0.3168,0.1267 -0.6338,0.2535 -0.9506,0.3802 -0.1257,-0.1565 -0.2513,-0.313 -0.3939,-0.4556 -0.1426,-0.1426 -0.3021,-0.2712 -0.4617,-0.3999 0.1268,-0.3169 0.2535,-0.6338 0.3803,-0.9507 -0.3485,-0.2218 -0.6971,-0.4436 -1.0456,-0.6654 -0.2219,0.2852 -0.4437,0.5703 -0.6655,0.8555 -0.1876,-0.0626 -0.3754,-0.1254 -0.5654,-0.1729 -0.1901,-0.0475 -0.3828,-0.0799 -0.5754,-0.1123 -0.0633,-0.3485 -0.1267,-0.6971 -0.19,-1.0456 -0.3807,0 -0.7613,0 -1.1419,0 -0.0632,0.3483 -0.1264,0.6967 -0.1896,1.045 -0.2124,0.0266 -0.4247,0.0531 -0.6146,0.1008 -0.1901,0.0476 -0.3578,0.1163 -0.5255,0.185 -0.2219,-0.2859 -0.4436,-0.572 -0.6655,-0.858 -0.2856,0.2226 -0.5712,0.4453 -0.8569,0.6679 0.0777,0.0718 0.1553,0.1435 0.2254,0.2043 0.0699,0.0607 0.1321,0.1106 0.1811,0.1483 0.0488,0.0377 0.0842,0.0635 0.1215,0.0908 0.0371,0.0272 0.0762,0.0558 0.1222,0.0873 0.0461,0.0314 0.0993,0.0655 0.1608,0.1063 0.0615,0.0407 0.1316,0.0882 0.206,0.1324 0.0744,0.044 0.1532,0.0848 0.2448,0.1326 0.0916,0.0477 0.196,0.1025 0.2802,0.1457 0.0843,0.0432 0.1483,0.0751 0.2114,0.106 0.0629,0.0308 0.125,0.0607 0.2,0.0963 0.075,0.0356 0.1629,0.0768 0.2452,0.1151 0.0822,0.0383 0.1587,0.0737 0.231,0.107 0.0722,0.0332 0.1401,0.0645 0.2122,0.0979 0.0721,0.0335 0.1483,0.0691 0.2237,0.1048 0.0752,0.0356 0.1494,0.0712 0.2126,0.1019 0.0632,0.0308 0.1152,0.0566 0.1627,0.0805 0.0475,0.0239 0.0904,0.0459 0.124,0.0633 0.0334,0.0173 0.0576,0.03 0.0845,0.0444 0.0269,0.0144 0.0566,0.0303 0.0857,0.0463 0.029,0.0158 0.0573,0.0315 0.084,0.0464 0.0265,0.0149 0.051,0.0288 0.0757,0.043 0.0246,0.0142 0.0492,0.0284 0.0693,0.0403 0.0201,0.0118 0.0357,0.021 0.0474,0.0281 0.0117,0.007 0.0194,0.0116 0.0311,0.0188 0.0116,0.007 0.0271,0.0166 0.0426,0.0261 -0.0164,-0.0104 -0.0328,-0.0207 -0.0492,-0.0312 -0.0025,-0.0016 -0.0049,-0.003 -0.0101,-0.0064 -0.0054,-0.0034 -0.0137,-0.0086 -0.0211,-0.0132 -0.0075,-0.0048 -0.0141,-0.0089 -0.021,-0.0133 -0.007,-0.0044 -0.0143,-0.009 -0.0213,-0.0133 -0.0069,-0.0044 -0.0134,-0.0085 -0.0213,-0.0134 -0.0078,-0.0049 -0.0169,-0.0106 -0.0265,-0.0165 -0.0095,-0.0061 -0.0195,-0.0123 -0.0308,-0.0193 -0.0113,-0.0071 -0.024,-0.015 -0.0368,-0.0229 -0.0128,-0.008 -0.0259,-0.0162 -0.0374,-0.0233 -0.0114,-0.0072 -0.0212,-0.0133 -0.0381,-0.0239 -0.017,-0.0107 -0.041,-0.0258 -0.0646,-0.0406 -0.0237,-0.015 -0.047,-0.0297 -0.0686,-0.0434 -0.0216,-0.0137 -0.0413,-0.0265 -0.0678,-0.0436 -0.0266,-0.0172 -0.06,-0.039 -0.0885,-0.0578 -0.0285,-0.0188 -0.0522,-0.0347 -0.0723,-0.0482 -0.0202,-0.0136 -0.0366,-0.025 -0.0543,-0.0372 -0.0178,-0.0122 -0.0368,-0.0256 -0.0564,-0.0395 -0.0198,-0.0141 -0.0402,-0.0289 -0.0579,-0.0418 -0.0179,-0.013 -0.0329,-0.0242 -0.0462,-0.0342 -0.0133,-0.01 -0.0249,-0.0189 -0.0392,-0.03 -0.0142,-0.0111 -0.0312,-0.0245 -0.0506,-0.0402 -0.0194,-0.0157 -0.0412,-0.0338 -0.0603,-0.05 -0.0192,-0.0161 -0.0357,-0.0305 -0.0518,-0.0448 -0.0161,-0.0143 -0.032,-0.0287 -0.0515,-0.0471 -0.0196,-0.0184 -0.0432,-0.0409 -0.0653,-0.0627 -0.0223,-0.0219 -0.0432,-0.0431 -0.063,-0.0636 -0.02,-0.0207 -0.0389,-0.0408 -0.0572,-0.0607 -0.0184,-0.0198 -0.0362,-0.0396 -0.0569,-0.0631 -0.0208,-0.0234 -0.0444,-0.0507 -0.0679,-0.0783 -0.0236,-0.0278 -0.0471,-0.0557 -0.0619,-0.0735 -0.0148,-0.0178 -0.021,-0.0253 -0.0288,-0.0349 -0.0079,-0.0096 -0.0176,-0.0214 -0.0289,-0.0355 -0.0115,-0.014 -0.0248,-0.0303 -0.0353,-0.0432 -0.0104,-0.0129 -0.018,-0.0223 -0.0257,-0.0318 0.034,0.0063 0.0682,0.0126 0.1037,0.0192 0.0353,0.0065 0.072,0.0133 0.1186,0.022 0.0466,0.0087 0.103,0.0192 0.1525,0.0286 0.0495,0.0093 0.0921,0.0175 0.1331,0.0253 0.0408,0.0079 0.08,0.0155 0.118,0.0231 0.0379,0.0075 0.0746,0.0148 0.1121,0.0225 0.0374,0.0077 0.0755,0.0155 0.119,0.0248 0.0435,0.0094 0.0923,0.0201 0.135,0.0297 0.0427,0.0095 0.079,0.018 0.1169,0.027 0.0377,0.009 0.0767,0.0186 0.109,0.0266 0.0323,0.008 0.0578,0.0144 0.093,0.0236 0.035,0.0091 0.0796,0.0208 0.1179,0.0311 0.0382,0.0102 0.0704,0.0189 0.1054,0.0287 0.035,0.0096 0.0732,0.0203 0.1166,0.0327 0.0434,0.0124 0.0922,0.0266 0.1332,0.0388 0.041,0.012 0.0743,0.0221 0.1032,0.0308 0.0288,0.0088 0.0533,0.0164 0.0813,0.0252 0.0278,0.0086 0.059,0.0186 0.0895,0.0284 0.0304,0.0098 0.06,0.0193 0.0897,0.0291 0.0295,0.0098 0.059,0.0197 0.0961,0.0323 0.037,0.0126 0.0815,0.028 0.1214,0.0419 0.0398,0.0139 0.0751,0.0264 0.1079,0.0383 0.0327,0.0118 0.0631,0.0228 0.0957,0.0349 0.0326,0.0121 0.0675,0.0252 0.1023,0.0385 0.0347,0.0133 0.0693,0.0266 0.1107,0.0432 0.0414,0.0165 0.0897,0.0362 0.1292,0.0527 0.0396,0.0164 0.0704,0.0295 0.1006,0.0428 0.0302,0.0132 0.0598,0.0266 0.0882,0.0396 0.0283,0.0129 0.0554,0.0256 0.0799,0.0373 0.0245,0.0117 0.0465,0.0223 0.0744,0.0363 0.0277,0.0138 0.0614,0.0307 0.0962,0.0487 0.0347,0.0179 0.0704,0.0369 0.1007,0.0531 0.0303,0.0162 0.055,0.0297 0.0796,0.0433 0.0246,0.0136 0.0488,0.0272 0.0754,0.0425 0.0267,0.0151 0.0555,0.0317 0.0812,0.0468 0.0256,0.0149 0.0481,0.0283 0.0708,0.0419 0.0226,0.0136 0.0455,0.0275 0.0702,0.0427 0.0247,0.0152 0.0512,0.0316 0.0801,0.0499 0.0288,0.0182 0.0601,0.0381 0.0888,0.0567 0.0286,0.0185 0.0549,0.0356 0.0805,0.0525 0.0256,0.017 0.0508,0.0336 0.081,0.0539 0.03,0.0202 0.0654,0.0442 0.0942,0.0637 0.0287,0.0195 0.051,0.0348 0.075,0.0513 0.0239,0.0164 0.0494,0.0339 0.072,0.0495 0.0226,0.0156 0.0423,0.0291 0.06,0.0415 0.0177,0.0122 0.0337,0.0232 0.0465,0.0321 0.0127,0.0087 0.0222,0.0153 0.0319,0.022 -0.015,-0.0198 -0.03,-0.0397 -0.0449,-0.0594 -0.0158,-0.0207 -0.0315,-0.0412 -0.0457,-0.06 -0.0144,-0.0187 -0.0274,-0.0356 -0.0424,-0.0548 -0.0149,-0.0193 -0.032,-0.041 -0.0489,-0.0624 -0.0171,-0.0214 -0.0343,-0.0428 -0.0487,-0.0606 -0.0146,-0.0179 -0.0265,-0.0324 -0.0376,-0.0455 -0.011,-0.0131 -0.0209,-0.0249 -0.0336,-0.0396 -0.0127,-0.0147 -0.028,-0.0324 -0.0439,-0.0503 -0.016,-0.018 -0.0325,-0.0362 -0.0479,-0.053 -0.0153,-0.0169 -0.0297,-0.0321 -0.0467,-0.05 -0.0169,-0.018 -0.0365,-0.0383 -0.0534,-0.0557 -0.017,-0.0174 -0.0312,-0.0319 -0.048,-0.0486 -0.0168,-0.0168 -0.036,-0.0359 -0.0524,-0.0521 -0.0165,-0.0163 -0.0301,-0.0295 -0.0455,-0.0445 -0.0153,-0.0149 -0.0326,-0.0314 -0.0457,-0.0439 -0.013,-0.0125 -0.0217,-0.021 -0.0351,-0.0336 -0.0135,-0.0128 -0.0313,-0.0298 -0.0506,-0.0481 -0.0195,-0.0183 -0.0403,-0.0379 -0.0582,-0.0547 -0.0179,-0.0168 -0.0328,-0.0307 -0.0476,-0.0447 -0.0149,-0.0139 -0.0299,-0.0278 -0.0476,-0.0443 -0.0178,-0.0165 -0.0385,-0.0358 -0.0541,-0.0503 -0.0156,-0.0145 -0.0261,-0.0243 -0.0384,-0.0357 -0.0124,-0.0115 -0.0266,-0.0246 -0.0388,-0.0358 -0.0122,-0.0114 -0.0224,-0.0209 -0.0414,-0.0384 -0.0191,-0.0175 -0.0468,-0.0433 -0.0701,-0.0646 -0.0233,-0.0214 -0.0419,-0.0387 -0.0607,-0.0559 -0.0187,-0.0172 -0.0374,-0.0345 -0.0597,-0.055 -0.0225,-0.0207 -0.0485,-0.0446 -0.0669,-0.0615 -0.0185,-0.017 -0.0292,-0.0269 -0.0399,-0.0368 -0.0108,-0.01 -0.0213,-0.0198 -0.032,-0.0298 0.0138,0.0085 0.0276,0.017 0.0414,0.0256 0.0259,0.0159 0.0517,0.0319 0.0832,0.0514 0.0315,0.0194 0.0687,0.0425 0.1007,0.0624 0.0319,0.0198 0.0585,0.0365 0.0811,0.0507 0.0225,0.014 0.0408,0.0254 0.0633,0.0398 0.0226,0.0143 0.0494,0.0313 0.0736,0.0467 0.024,0.0154 0.0452,0.0291 0.1089,0.0712 0.0635,0.0421 0.1693,0.1126 0.2737,0.1848 0.1044,0.0722 0.2073,0.1462 0.2948,0.2114 0.0876,0.0652 0.1599,0.1215 0.2302,0.1788 0.0702,0.0572 0.1385,0.1152 0.2044,0.1739 0.0658,0.0586 0.1293,0.1179 0.1894,0.1767 0.06,0.0587 0.1169,0.1169 0.1741,0.1785 0.0573,0.0617 0.1152,0.1268 0.1617,0.1806 0.0465,0.0537 0.0816,0.0961 0.1255,0.1514 0.0438,0.0553 0.0962,0.1234 0.1519,0.2001 0.0557,0.0767 0.1144,0.1619 0.1594,0.2299 0.0449,0.0678 0.0759,0.1183 0.109,0.1743 0.033,0.0561 0.0682,0.1177 0.1046,0.1904 0.0363,0.0728 0.0738,0.1567 0.1065,0.2343 0.0325,0.0775 0.0603,0.1487 0.0885,0.2282 0.0283,0.0795 0.0571,0.1674 0.0783,0.2355 0.0211,0.068 0.0347,0.1164 0.0509,0.1796 0.016,0.0631 0.0348,0.1411 0.0544,0.2344 0.0197,0.0932 0.0402,0.2017 0.0525,0.2701 0.0122,0.0683 0.0162,0.0968 0.0217,0.1552 0.0055,0.0585 0.0127,0.1472 0.0144,0.2357 0.0016,0.0885 -0.0021,0.1769 -0.0036,0.2265 -0.0016,0.0496 -0.0008,0.0607 0,0.0717z"/>
 </g>
</svg>
