<?xml version="1.0" encoding="UTF-8"?>
<!DOCTYPE svg PUBLIC "-//W3C//DTD SVG 1.1//EN" "http://www.w3.org/Graphics/SVG/1.1/DTD/svg11.dtd">
<!-- Creator: CorelDRAW -->
<svg xmlns="http://www.w3.org/2000/svg" xml:space="preserve" width="33.8666mm" height="13.5466mm" version="1.1" style="shape-rendering:geometricPrecision; text-rendering:geometricPrecision; image-rendering:optimizeQuality; fill-rule:evenodd; clip-rule:evenodd"
viewBox="0 0 33.8666 13.5466"
 xmlns:xlink="http://www.w3.org/1999/xlink"
 xmlns:xodm="http://www.corel.com/coreldraw/odm/2003">
 <defs>
  <style type="text/css">
   <![CDATA[
    .fil0 {fill:#62673A}
    .fil3 {fill:#ADBB44}
    .fil4 {fill:#D3EF4C}
    .fil1 {fill:url(#id0)}
    .fil2 {fill:url(#id1);fill-rule:nonzero}
   ]]>
  </style>
  <linearGradient id="id0" gradientUnits="userSpaceOnUse" x1="15.8699" y1="4.527" x2="33.4411" y2="4.527">
   <stop offset="0" style="stop-opacity:1; stop-color:#62673A"/>
   <stop offset="0.501961" style="stop-opacity:1; stop-color:#ADBB44"/>
   <stop offset="1" style="stop-opacity:1; stop-color:#D3EF4C"/>
  </linearGradient>
  <linearGradient id="id1" gradientUnits="userSpaceOnUse" xlink:href="#id0" x1="16.1046" y1="9.0186" x2="33.2457" y2="9.0186">
  </linearGradient>
 </defs>
 <g id="Camada_x0020_1">
  <metadata id="CorelCorpID_0Corel-Layer"/>
  <path class="fil0" d="M1.9958 1.8015c-0.1438,0.1364 -0.2876,0.273 -0.417,0.4367 -0.1294,0.1638 -0.2443,0.3549 -0.3306,0.505 -0.0863,0.1501 -0.1438,0.2593 -0.2013,0.3957 -0.0575,0.1365 -0.1151,0.3003 -0.1725,0.5051 -0.0575,0.2046 -0.1151,0.4503 -0.1474,0.6794 -0.0324,0.229 -0.0395,0.4414 -0.0395,0.6325 0,0.191 0.0071,0.3607 0.0252,0.5138 0.0179,0.153 0.0466,0.2896 0.0754,0.426 0,0.4641 0,0.928 0,1.392 0.2629,0 0.5259,0 0.7888,0 0.0434,0.1656 0.0868,0.3312 0.1566,0.4949 0.0698,0.1639 0.1661,0.3258 0.2623,0.4877 -0.2301,0.2184 -0.4601,0.4367 -0.6902,0.6551 0.2013,0.3003 0.4026,0.6005 0.6039,0.9008 0.2875,-0.1365 0.5751,-0.273 0.8626,-0.4095 0.0863,0.1365 0.1725,0.273 0.2875,0.4095 0.115,0.1364 0.2588,0.2729 0.4025,0.4094 -0.115,0.2456 -0.23,0.4913 -0.345,0.7369 0.3163,0.1911 0.6325,0.3821 0.9489,0.5732 0.23,-0.2456 0.46,-0.4913 0.69,-0.7369 0.1725,0.0545 0.3451,0.1092 0.5032,0.1501 0.1581,0.0409 0.3019,0.0683 0.4456,0.0955 0.0576,0.3002 0.115,0.6005 0.1726,0.9007 0.3451,0 0.69,0 1.0351,0 0.0575,-0.3002 0.115,-0.6005 0.1725,-0.9007 0.2013,-0.0272 0.4025,-0.0546 0.5608,-0.0955 0.1581,-0.0409 0.273,-0.0956 0.388,-0.1501 0.2301,0.2456 0.4601,0.4913 0.6902,0.7369 0.3162,-0.1911 0.6325,-0.3821 0.9488,-0.5732 -0.1151,-0.2729 -0.2301,-0.5459 -0.3451,-0.8189 0.1438,-0.1091 0.2876,-0.2182 0.417,-0.3411 0.1294,-0.1228 0.2443,-0.2593 0.3593,-0.3958 0.2875,0.1092 0.5751,0.2184 0.8627,0.3276 0.1724,-0.273 0.345,-0.546 0.5175,-0.8189 -0.23,-0.191 -0.46,-0.3821 -0.69,-0.5731 0.0574,-0.1911 0.115,-0.3821 0.1581,-0.546 0.0431,-0.1637 0.0719,-0.3002 0.1006,-0.4366 -0.7763,0.2183 -1.5526,0.4366 -2.3289,0.655 -0.2876,0.1911 -0.5752,0.3821 -0.9201,0.5186 -0.3451,0.1365 -0.7476,0.2184 -1.0926,0.2729 -0.3451,0.0546 -0.6327,0.0819 -1.0352,0.0545 -0.4025,-0.0272 -0.9201,-0.109 -1.3801,-0.2455 -0.4601,-0.1365 -0.8626,-0.3276 -1.222,-0.5596 -0.3595,-0.2319 -0.6757,-0.5049 -0.9776,-0.8598 -0.302,-0.3548 -0.5895,-0.7915 -0.7619,-1.2009 -0.1726,-0.4094 -0.2301,-0.7916 -0.2445,-1.2146 -0.0144,-0.4231 0.0144,-0.887 0.1151,-1.2964 0.1005,-0.4095 0.2731,-0.7644 0.4169,-1.0373 0.1437,-0.273 0.2587,-0.464 0.3738,-0.6551z"/>
  <path class="fil1" d="M26.2363 2.9219c0.6409,0.0026 1.2819,0.0052 1.9228,0.0078 0.2228,0.2142 0.4456,0.4283 0.5625,0.555 0.1169,0.1266 0.128,0.1658 -0.022,0.5914 -0.1499,0.4256 -0.4607,1.2376 -0.7716,2.0497 -0.3942,-0.0049 -0.7885,-0.0099 -1.1828,-0.0149 0.0807,-0.1984 0.1615,-0.397 0.2422,-0.5954 -0.3934,0.0024 -0.7868,0.0047 -1.1802,0.0071 -0.1045,-0.107 -0.2091,-0.2141 -0.3136,-0.3212 -0.1485,0.3082 -0.297,0.6163 -0.4455,0.9244 -0.4112,-0.0009 -0.8224,-0.0018 -1.2336,-0.0028 0.4662,-0.8947 0.9324,-1.7894 1.3986,-2.6841 0.3411,-0.1723 0.6821,-0.3446 1.0232,-0.517zm-0.5355 1.9027c0.1806,-0.3755 0.3612,-0.7511 0.4834,-0.9416 0.1222,-0.1907 0.1861,-0.1964 0.25,-0.202 0.352,0.0005 0.7039,0.0009 1.0559,0.0014 0.0466,0.0093 0.0933,0.0187 0.1099,0.0559 0.0166,0.0371 0.003,0.102 -0.0581,0.2845 -0.0611,0.1825 -0.17,0.4826 -0.2788,0.7827 -0.5207,0.0064 -1.0416,0.0128 -1.5623,0.0191zm4.2442 -1.9186c1.1654,0.0033 2.3307,0.0066 3.4961,0.01 -0.0918,0.2448 -0.1837,0.4895 -0.2755,0.7343 -0.7804,-0.0101 -1.5609,-0.0202 -2.3413,-0.0302 -0.06,0.181 -0.1201,0.362 -0.1801,0.543 0.7098,0 1.4197,0 2.1295,0 -0.0918,0.2447 -0.1837,0.4895 -0.2755,0.7342 -0.7134,-0.0034 -1.4267,-0.0067 -2.1401,-0.0101 -0.0989,0.3051 -0.1978,0.6102 -0.2967,0.9152 -0.1977,0.104 -0.3955,0.2079 -0.5932,0.3118 -0.2578,-0.0067 -0.5156,-0.0134 -0.7734,-0.0201 0.4167,-1.0627 0.8335,-2.1255 1.2502,-3.1881zm-9.1597 0.0097c1.2036,0.0039 2.4072,0.0077 3.6108,0.0115 -0.0888,0.2512 -0.1776,0.5023 -0.2665,0.7534 -0.8179,-0.0115 -1.6358,-0.023 -2.4537,-0.0345 -0.0565,0.1725 -0.1131,0.3452 -0.1696,0.5177 0.7351,0 1.4702,0 2.2053,0 -0.0929,0.2434 -0.1858,0.487 -0.2787,0.7304 -0.7392,-0.0077 -1.4783,-0.0154 -2.2175,-0.023 -0.0423,0.1227 -0.0848,0.2453 -0.1272,0.3681 0.0626,0.0575 0.1252,0.1149 0.1879,0.1725 0.729,-0.0019 1.458,-0.0038 2.187,-0.0057 -0.0888,0.2473 -0.1777,0.4946 -0.2665,0.7419 -0.8987,-0.0096 -1.7974,-0.0192 -2.6961,-0.0287 -0.2221,-0.1745 -0.4443,-0.349 -0.6664,-0.5235 0.0081,-0.0843 0.0161,-0.1687 0.0242,-0.2531 0.309,-0.809 0.618,-1.618 0.927,-2.427zm-3.9824 0.0253c0.4076,-0.0057 0.8152,-0.0115 1.2229,-0.0173 -0.305,0.7596 -0.61,1.5192 -0.9149,2.2788 0.0724,0.0602 0.1448,0.1204 0.2173,0.1806 0.616,-0.0029 1.2319,-0.0057 1.8479,-0.0086 -0.0936,0.2493 -0.1872,0.4987 -0.2808,0.748 -0.7911,0.0029 -1.5822,0.0057 -2.3733,0.0086 -0.2174,-0.1776 -0.4347,-0.3554 -0.6521,-0.533 0,-0.086 0,-0.1721 0,-0.2581 0.311,-0.7997 0.6219,-1.5993 0.933,-2.399z"/>
  <path class="fil2" d="M16.1046 10.0472l0 -2.0573 1.0633 0 0 0.2191 -0.9199 -0.0089 0.1216 -0.1125 -0.0218 0.8821 -0.1154 -0.074 0.8607 0 0 0.2102 -0.8607 0 0.1154 -0.0859 0.0218 0.9266 -0.1216 -0.1125 0.9199 -0.0059 0 0.219 -1.0633 0zm1.6027 0l0 -2.0573 0.3524 0 0.8825 1.7583 0.0094 0 -0.0406 -1.7583 0.262 0 0 2.0573 -0.3524 0 -0.8824 -1.7583 -0.0094 0 0.0405 1.7583 -0.262 0zm2.8252 0.0385c-0.108,0 -0.211,-0.0143 -0.3087,-0.0429 -0.0977,-0.0287 -0.184,-0.0814 -0.2587,-0.1584 -0.0749,-0.077 -0.1336,-0.186 -0.1763,-0.3271 -0.0425,-0.1411 -0.0639,-0.3231 -0.0639,-0.5461 0,-0.2191 0.0203,-0.3982 0.0608,-0.5373 0.0405,-0.1391 0.0982,-0.2467 0.173,-0.3226 0.0749,-0.076 0.1643,-0.1283 0.2682,-0.1569 0.104,-0.0286 0.2194,-0.043 0.3462,-0.043 0.0665,0 0.1341,0.0025 0.2027,0.0074 0.0686,0.005 0.1325,0.0114 0.1917,0.0193 0.0593,0.0079 0.1056,0.0158 0.1388,0.0237l-0.0311 0.2131c-0.0395,-0.0039 -0.1024,-0.0113 -0.1887,-0.0222 -0.0863,-0.0109 -0.197,-0.0163 -0.3322,-0.0163 -0.1039,0 -0.1876,0.0054 -0.251,0.0163 -0.0634,0.0109 -0.1107,0.0321 -0.1419,0.0636 -0.0395,0.0375 -0.0753,0.1155 -0.1075,0.2339 -0.0323,0.1184 -0.0484,0.2901 -0.0484,0.515 0,0.1717 0.0099,0.3109 0.0297,0.4174 0.0197,0.1066 0.042,0.187 0.067,0.2413 0.025,0.0542 0.0468,0.0912 0.0655,0.111 0.0249,0.0256 0.066,0.0478 0.1232,0.0666 0.0572,0.0187 0.1419,0.0281 0.2541,0.0281 0.0728,0 0.1367,-0.004 0.1918,-0.0118 0.0551,-0.0079 0.0992,-0.0188 0.1325,-0.0326l0 -0.7637 0.1185 0.1184 -0.449 -0.0207 0 -0.1836 0.58 0 0 0.9946c0,0 -0.0245,0.0094 -0.0733,0.0282 -0.0488,0.0187 -0.1175,0.0379 -0.2058,0.0577 -0.0884,0.0197 -0.1908,0.0296 -0.3072,0.0296zm1.2037 -0.0385l0 -2.0573 1.0633 0 0 0.2191 -0.9198 -0.0089 0.1215 -0.1125 -0.0218 0.8821 -0.1153 -0.074 0.8606 0 0 0.2102 -0.8606 0 0.1153 -0.0859 0.0218 0.9266 -0.1215 -0.1125 0.9198 -0.0059 0 0.219 -1.0633 0zm1.6028 0l0 -2.0573 0.3524 0 0.8824 1.7583 0.0094 0 -0.0406 -1.7583 0.262 0 0 2.0573 -0.3524 0 -0.8824 -1.7583 -0.0094 0 0.0406 1.7583 -0.262 0zm2.1204 0l0 -2.0573 0.262 0 -0.0094 0.9828 -0.1185 -0.0829 1.1475 0 -0.1185 0.0829 -0.0062 -0.9828 0.262 0 0 2.0573 -0.262 0 0.0062 -1.0212 0.1185 0.0828 -1.1475 0 0.1185 -0.0828 0.0094 1.0212 -0.262 0zm1.7619 0l0.5894 -2.0573 0.3679 0 0.5893 2.0573 -0.2682 0 -0.1651 -0.6157 0.1309 0.071 -0.9355 0 0.1248 -0.071 -0.1653 0.6157 -0.2682 0zm0.4397 -0.6483l-0.0873 -0.1154 0.8419 0 -0.0874 0.1154 -0.3523 -1.2994 0.1466 0.1095 -0.2558 0 0.1467 -0.1095 -0.3524 1.2994zm1.4499 0.6483l0.0156 -0.9739 -0.0094 -1.0834c0.0229,-0.0039 0.0604,-0.0079 0.1123,-0.0118 0.052,-0.004 0.1113,-0.0079 0.1778,-0.0119 0.0665,-0.0039 0.1346,-0.0074 0.2042,-0.0103 0.0696,-0.003 0.1346,-0.0045 0.1949,-0.0045 0.1414,0 0.264,0.0208 0.368,0.0622 0.1039,0.0415 0.184,0.109 0.24,0.2028 0.0562,0.0937 0.0843,0.2185 0.0843,0.3744 0,0.1717 -0.0395,0.3079 -0.1185,0.4085 -0.079,0.1007 -0.1934,0.1678 -0.343,0.2013l0 0.0089 0.4895 0.8377 -0.3087 0 -0.4366 -0.817 -0.4053 -0.0148 0 0.8318 -0.2651 0zm0.7266 -1.0242c0.1538,0 0.2562,-0.035 0.3072,-0.1051 0.0508,-0.07 0.0763,-0.1801 0.0763,-0.33 0,-0.1224 -0.0109,-0.2156 -0.0327,-0.2798 -0.0218,-0.0641 -0.0514,-0.106 -0.0888,-0.1258 -0.0229,-0.0138 -0.0578,-0.0241 -0.1045,-0.031 -0.0468,-0.007 -0.0973,-0.0104 -0.1513,-0.0104 -0.0852,0 -0.172,0.0039 -0.2603,0.0118 -0.0884,0.0079 -0.1564,0.0148 -0.2043,0.0208l-0.0062 0.8199c0.0727,0.0079 0.1501,0.0148 0.2323,0.0207 0.0821,0.0059 0.1595,0.0089 0.2323,0.0089zm1.2536 1.0272l0.0093 -0.9443 -0.0093 -1.116 0.265 0 -0.0124 0.9088 0.0124 1.1485 -0.265 0.003zm0.608 -0.003l0.5894 -2.0573 0.368 0 0.5892 2.0573 -0.2682 0 -0.1651 -0.6157 0.1309 0.071 -0.9354 0 0.1247 -0.071 -0.1653 0.6157 -0.2682 0zm0.4397 -0.6483l-0.0873 -0.1154 0.8419 0 -0.0874 0.1154 -0.3523 -1.2994 0.1466 0.1095 -0.2558 0 0.1467 -0.1095 -0.3524 1.2994z"/>
  <rect class="fil0" x="13.7435" y="1.3958" width="0.3744" height="10.6377"/>
  <path class="fil3" d="M5.3306 3.1254c0.1672,0.196 0.3345,0.3921 0.5745,0.579 0.2401,0.187 0.553,0.3647 0.8218,0.5252 0.2689,0.1603 0.4935,0.3033 0.6933,0.4516 0.1998,0.1484 0.3745,0.3022 0.5258,0.4868 0.1513,0.1845 0.2791,0.3998 0.3643,0.5638 0.0852,0.1639 0.1278,0.2765 0.1742,0.404 0.0465,0.1274 0.0968,0.2695 0.1374,0.4367 0.0405,0.1673 0.0713,0.3593 0.1021,0.5515 -0.3799,-0.0526 -0.7597,-0.1051 -1.1248,-0.1676 -0.3651,-0.0626 -0.7155,-0.1349 -1.0863,-0.2393 -0.3706,-0.1043 -0.7616,-0.2407 -1.1322,-0.3813 -0.3704,-0.1406 -0.7205,-0.2857 -0.9371,-0.4009 -0.2165,-0.1152 -0.2995,-0.2006 -0.3742,-0.2704 -0.0745,-0.0699 -0.1409,-0.1243 -0.181,-0.1568 -0.0401,-0.0326 -0.0541,-0.0432 -0.067,-0.0536 -0.0129,-0.0106 -0.0245,-0.0207 -0.0455,-0.0381 -0.021,-0.0175 -0.0511,-0.042 -0.0833,-0.069 -0.0322,-0.027 -0.0664,-0.0565 -0.1189,-0.1011 -0.0524,-0.0446 -0.1232,-0.1043 -0.1939,-0.1641 0.1404,0.1762 0.2809,0.3523 0.4632,0.5579 0.1822,0.2057 0.4065,0.4406 0.7272,0.7121 0.3208,0.2714 0.7382,0.5794 1.1469,0.8082 0.4087,0.2288 0.8087,0.3786 1.2082,0.492 0.3995,0.1132 0.7987,0.1901 1.0375,0.2357 0.2388,0.0454 0.3174,0.0594 0.4175,0.0771 0.1002,0.0176 0.2219,0.0387 0.3437,0.0599 -0.0193,0.0807 -0.0386,0.1612 -0.1261,0.2714 -0.0875,0.1102 -0.2432,0.2499 -0.3925,0.37 -0.1493,0.1201 -0.2921,0.2205 -0.4577,0.3169 -0.1655,0.0965 -0.3539,0.1891 -0.5469,0.2697 -0.1928,0.0806 -0.3904,0.1494 -0.5478,0.2 -0.1573,0.0506 -0.2745,0.0831 -0.4444,0.1037 -0.1698,0.0206 -0.3924,0.0294 -0.6149,0.0381 0.1778,0.0426 0.3555,0.0851 0.5886,0.1176 0.2331,0.0325 0.5215,0.055 0.85,0.0425 0.3286,-0.0125 0.6973,-0.0601 1.0337,-0.127 0.3365,-0.0668 0.6406,-0.153 0.932,-0.2497 0.2914,-0.0967 0.5698,-0.2039 0.8613,-0.3441 0.2916,-0.1401 0.5961,-0.3134 0.781,-0.5258 0.1849,-0.2124 0.2504,-0.4641 0.3082,-0.6869 0.058,-0.2228 0.1085,-0.4169 0.1129,-0.6315 0.0044,-0.2147 -0.0375,-0.4499 -0.0874,-0.6638 -0.0498,-0.2138 -0.1077,-0.4064 -0.1886,-0.6089 -0.0809,-0.2025 -0.1846,-0.415 -0.3574,-0.6642 -0.1727,-0.2493 -0.4144,-0.5353 -0.6772,-0.7813 -0.2626,-0.2462 -0.5465,-0.4524 -0.8164,-0.6303 -0.2697,-0.1781 -0.5258,-0.3278 -0.7817,-0.4776 0.1962,0.1712 0.3925,0.3423 0.5578,0.4899 0.1654,0.1474 0.2998,0.2713 0.4177,0.3969 0.1179,0.1255 0.2191,0.2528 0.3203,0.38 -0.1812,-0.1191 -0.3624,-0.2383 -0.5358,-0.3433 -0.1734,-0.105 -0.3388,-0.1959 -0.4992,-0.2761 -0.1602,-0.0803 -0.3154,-0.1498 -0.5114,-0.225 -0.196,-0.0753 -0.433,-0.1563 -0.6543,-0.2249 -0.2213,-0.0687 -0.4269,-0.125 -0.615,-0.1729 -0.1882,-0.048 -0.359,-0.0877 -0.5731,-0.13 -0.2141,-0.0425 -0.4716,-0.0876 -0.7291,-0.1327z"/>
  <path class="fil4" d="M11.0529 7.3697c0.3163,-0.0547 0.6326,-0.1092 0.9489,-0.1639 0,-0.3548 0,-0.7096 0,-1.0644 -0.3163,-0.0273 -0.6326,-0.0546 -0.9489,-0.0819 -0.0296,-0.1638 -0.0594,-0.3276 -0.1024,-0.4913 -0.0431,-0.1638 -0.0998,-0.3276 -0.1563,-0.4913 0.23,-0.1911 0.46,-0.3821 0.69,-0.5732 -0.1725,-0.3002 -0.3451,-0.6005 -0.5175,-0.9007 -0.2876,0.1092 -0.5752,0.2183 -0.8627,0.3275 -0.114,-0.1348 -0.228,-0.2696 -0.3574,-0.3924 -0.1294,-0.1229 -0.2741,-0.2337 -0.4189,-0.3445 0.115,-0.2729 0.23,-0.546 0.3451,-0.8189 -0.3163,-0.1911 -0.6326,-0.3821 -0.9488,-0.5732 -0.2014,0.2456 -0.4026,0.4913 -0.6039,0.7369 -0.1702,-0.0539 -0.3406,-0.108 -0.5131,-0.1489 -0.1724,-0.0409 -0.3473,-0.0689 -0.522,-0.0967 -0.0575,-0.3002 -0.115,-0.6005 -0.1725,-0.9007 -0.3454,0 -0.6907,0 -1.0361,0 -0.0574,0.3 -0.1147,0.6001 -0.1721,0.9001 -0.1926,0.0229 -0.3853,0.0458 -0.5577,0.0869 -0.1725,0.041 -0.3246,0.1002 -0.4768,0.1593 -0.2013,-0.2463 -0.4025,-0.4927 -0.6038,-0.739 -0.2592,0.1917 -0.5184,0.3835 -0.7776,0.5753 0.0705,0.0618 0.1409,0.1236 0.2045,0.1759 0.0635,0.0524 0.1199,0.0953 0.1643,0.1278 0.0443,0.0325 0.0764,0.0547 0.1103,0.0782 0.0337,0.0234 0.0691,0.0481 0.1109,0.0752 0.0418,0.0271 0.0901,0.0565 0.1459,0.0916 0.0558,0.0351 0.1194,0.076 0.187,0.114 0.0674,0.0379 0.1389,0.0731 0.2221,0.1142 0.0831,0.0411 0.1778,0.0883 0.2542,0.1255 0.0765,0.0373 0.1345,0.0647 0.1918,0.0913 0.0571,0.0265 0.1135,0.0524 0.1815,0.083 0.0681,0.0307 0.1479,0.0662 0.2225,0.0991 0.0746,0.033 0.144,0.0635 0.2096,0.0922 0.0655,0.0286 0.1272,0.0555 0.1926,0.0843 0.0654,0.0289 0.1346,0.0595 0.2029,0.0903 0.0683,0.0306 0.1356,0.0613 0.193,0.0878 0.0573,0.0265 0.1045,0.0487 0.1476,0.0693 0.0431,0.0206 0.082,0.0396 0.1125,0.0546 0.0303,0.0149 0.0522,0.0258 0.0767,0.0382 0.0244,0.0124 0.0513,0.0261 0.0777,0.0398 0.0264,0.0137 0.0521,0.0272 0.0762,0.0401 0.0241,0.0127 0.0464,0.0247 0.0688,0.037 0.0223,0.0122 0.0446,0.0245 0.0629,0.0347 0.0182,0.0102 0.0324,0.0181 0.043,0.0242 0.0106,0.006 0.0176,0.01 0.0282,0.0162 0.0105,0.0061 0.0245,0.0143 0.0386,0.0225 -0.0149,-0.009 -0.0298,-0.0179 -0.0446,-0.0269 -0.0023,-0.0013 -0.0044,-0.0026 -0.0092,-0.0055 -0.0049,-0.0029 -0.0124,-0.0074 -0.0192,-0.0114 -0.0067,-0.0041 -0.0127,-0.0077 -0.019,-0.0114 -0.0063,-0.0038 -0.0129,-0.0078 -0.0193,-0.0115 -0.0063,-0.0038 -0.0122,-0.0073 -0.0193,-0.0115 -0.0071,-0.0043 -0.0154,-0.0091 -0.0241,-0.0143 -0.0086,-0.0052 -0.0177,-0.0105 -0.0279,-0.0166 -0.0103,-0.0061 -0.0218,-0.0129 -0.0334,-0.0197 -0.0116,-0.0069 -0.0235,-0.0139 -0.0339,-0.02 -0.0104,-0.0062 -0.0193,-0.0116 -0.0347,-0.0206 -0.0153,-0.0092 -0.0371,-0.0223 -0.0585,-0.0351 -0.0215,-0.0128 -0.0427,-0.0255 -0.0623,-0.0373 -0.0195,-0.0118 -0.0375,-0.0228 -0.0615,-0.0376 -0.0242,-0.0148 -0.0544,-0.0336 -0.0803,-0.0497 -0.0259,-0.0163 -0.0474,-0.0299 -0.0656,-0.0416 -0.0184,-0.0117 -0.0332,-0.0215 -0.0493,-0.032 -0.0161,-0.0106 -0.0333,-0.0221 -0.0512,-0.0341 -0.0179,-0.012 -0.0364,-0.0248 -0.0525,-0.0359 -0.0162,-0.0113 -0.0299,-0.0209 -0.0419,-0.0295 -0.0121,-0.0086 -0.0226,-0.0163 -0.0356,-0.0259 -0.0129,-0.0095 -0.0283,-0.021 -0.0459,-0.0346 -0.0176,-0.0135 -0.0374,-0.0291 -0.0547,-0.043 -0.0175,-0.0139 -0.0324,-0.0263 -0.047,-0.0386 -0.0147,-0.0124 -0.029,-0.0248 -0.0468,-0.0406 -0.0178,-0.0159 -0.0392,-0.0352 -0.0593,-0.054 -0.0201,-0.0188 -0.0391,-0.0371 -0.0571,-0.0548 -0.0181,-0.0178 -0.0353,-0.0351 -0.0519,-0.0523 -0.0167,-0.0171 -0.0329,-0.0341 -0.0516,-0.0543 -0.0189,-0.0202 -0.0403,-0.0437 -0.0617,-0.0675 -0.0214,-0.0239 -0.0426,-0.048 -0.0561,-0.0633 -0.0134,-0.0153 -0.019,-0.0218 -0.0262,-0.03 -0.0071,-0.0084 -0.0159,-0.0185 -0.0262,-0.0306 -0.0104,-0.0121 -0.0225,-0.0261 -0.032,-0.0372 -0.0094,-0.0112 -0.0164,-0.0193 -0.0233,-0.0274 0.0309,0.0054 0.0619,0.0108 0.0941,0.0165 0.032,0.0056 0.0654,0.0114 0.1076,0.019 0.0423,0.0074 0.0935,0.0165 0.1384,0.0246 0.0449,0.008 0.0835,0.015 0.1207,0.0218 0.0371,0.0068 0.0727,0.0134 0.1071,0.0198 0.0344,0.0065 0.0678,0.0128 0.1018,0.0195 0.0339,0.0066 0.0684,0.0133 0.108,0.0214 0.0394,0.008 0.0837,0.0173 0.1224,0.0255 0.0387,0.0082 0.0718,0.0156 0.1061,0.0233 0.0342,0.0077 0.0696,0.0159 0.0989,0.0229 0.0294,0.0069 0.0525,0.0124 0.0844,0.0203 0.0318,0.0079 0.0722,0.0179 0.1069,0.0268 0.0348,0.0088 0.0639,0.0163 0.0957,0.0247 0.0318,0.0083 0.0664,0.0175 0.1059,0.0282 0.0393,0.0107 0.0836,0.0229 0.1208,0.0334 0.0372,0.0103 0.0674,0.019 0.0936,0.0266 0.0262,0.0075 0.0484,0.0141 0.0738,0.0216 0.0253,0.0075 0.0536,0.0161 0.0812,0.0245 0.0276,0.0084 0.0545,0.0166 0.0814,0.0251 0.0268,0.0084 0.0536,0.017 0.0872,0.0278 0.0336,0.0108 0.074,0.0241 0.1101,0.0361 0.0362,0.012 0.0682,0.0227 0.0979,0.033 0.0298,0.0101 0.0573,0.0196 0.0869,0.03 0.0296,0.0105 0.0613,0.0217 0.0929,0.0332 0.0314,0.0114 0.0628,0.0229 0.1004,0.0372 0.0376,0.0143 0.0814,0.0312 0.1173,0.0454 0.0358,0.0141 0.0639,0.0254 0.0913,0.0369 0.0274,0.0114 0.0542,0.0229 0.0799,0.0341 0.0257,0.0111 0.0504,0.022 0.0726,0.0321 0.0222,0.0101 0.0422,0.0192 0.0674,0.0312 0.0252,0.0119 0.0558,0.0265 0.0873,0.042 0.0315,0.0155 0.0639,0.0318 0.0914,0.0458 0.0275,0.0139 0.0499,0.0256 0.0723,0.0373 0.0223,0.0117 0.0443,0.0234 0.0684,0.0365 0.0242,0.0131 0.0503,0.0274 0.0737,0.0404 0.0232,0.0128 0.0436,0.0244 0.0642,0.0361 0.0205,0.0117 0.0413,0.0236 0.0637,0.0368 0.0225,0.0131 0.0465,0.0272 0.0727,0.0429 0.0262,0.0157 0.0545,0.0328 0.0806,0.0489 0.0259,0.0159 0.0498,0.0306 0.073,0.0452 0.0232,0.0146 0.0461,0.029 0.0735,0.0465 0.0273,0.0174 0.0594,0.038 0.0854,0.0548 0.0261,0.0168 0.0464,0.03 0.0681,0.0442 0.0217,0.0141 0.0448,0.0292 0.0654,0.0427 0.0205,0.0134 0.0383,0.025 0.0544,0.0356 0.0161,0.0106 0.0306,0.0201 0.0422,0.0277 0.0115,0.0075 0.0202,0.0132 0.0289,0.019 -0.0135,-0.0171 -0.0272,-0.0342 -0.0407,-0.0512 -0.0143,-0.0178 -0.0285,-0.0355 -0.0415,-0.0517 -0.013,-0.0161 -0.0248,-0.0306 -0.0384,-0.0471 -0.0135,-0.0167 -0.029,-0.0353 -0.0444,-0.0538 -0.0155,-0.0185 -0.0311,-0.0369 -0.0442,-0.0522 -0.0133,-0.0154 -0.0241,-0.0279 -0.0341,-0.0392 -0.0099,-0.0113 -0.019,-0.0215 -0.0305,-0.0342 -0.0115,-0.0126 -0.0254,-0.0278 -0.0399,-0.0433 -0.0144,-0.0155 -0.0294,-0.0311 -0.0434,-0.0456 -0.0139,-0.0145 -0.027,-0.0277 -0.0423,-0.0431 -0.0154,-0.0154 -0.0332,-0.0329 -0.0485,-0.0479 -0.0154,-0.015 -0.0284,-0.0275 -0.0435,-0.0419 -0.0153,-0.0145 -0.0327,-0.031 -0.0476,-0.0449 -0.015,-0.014 -0.0273,-0.0254 -0.0413,-0.0383 -0.0139,-0.0129 -0.0296,-0.0271 -0.0414,-0.0378 -0.0119,-0.0108 -0.0198,-0.0181 -0.0319,-0.029 -0.0123,-0.011 -0.0285,-0.0256 -0.046,-0.0414 -0.0176,-0.0158 -0.0366,-0.0327 -0.0528,-0.0471 -0.0162,-0.0145 -0.0297,-0.0265 -0.0432,-0.0385 -0.0135,-0.012 -0.0271,-0.024 -0.0432,-0.0382 -0.016,-0.0142 -0.0349,-0.0309 -0.0491,-0.0433 -0.0141,-0.0125 -0.0236,-0.0209 -0.0348,-0.0308 -0.0112,-0.0099 -0.0241,-0.0212 -0.0352,-0.0308 -0.0111,-0.0098 -0.0203,-0.018 -0.0375,-0.0331 -0.0174,-0.0151 -0.0425,-0.0372 -0.0636,-0.0556 -0.0212,-0.0185 -0.0381,-0.0334 -0.0551,-0.0482 -0.0171,-0.0148 -0.034,-0.0297 -0.0542,-0.0474 -0.0204,-0.0178 -0.044,-0.0384 -0.0608,-0.053 -0.0167,-0.0146 -0.0264,-0.0231 -0.0361,-0.0316 -0.0098,-0.0086 -0.0194,-0.0171 -0.0291,-0.0257 0.0126,0.0073 0.0251,0.0147 0.0376,0.022 0.0235,0.0138 0.0469,0.0275 0.0755,0.0443 0.0286,0.0168 0.0624,0.0367 0.0914,0.0538 0.0289,0.017 0.0531,0.0314 0.0736,0.0436 0.0203,0.0121 0.037,0.022 0.0574,0.0343 0.0205,0.0123 0.0449,0.027 0.0668,0.0403 0.0218,0.0132 0.041,0.025 0.0988,0.0613 0.0577,0.0363 0.1536,0.097 0.2484,0.1592 0.0947,0.0622 0.188,0.1259 0.2675,0.1821 0.0795,0.0561 0.1451,0.1046 0.2089,0.154 0.0636,0.0493 0.1256,0.0992 0.1854,0.1498 0.0597,0.0505 0.1174,0.1015 0.1719,0.1522 0.0545,0.0506 0.106,0.1007 0.158,0.1538 0.0519,0.0531 0.1045,0.1092 0.1467,0.1555 0.0422,0.0462 0.0741,0.0828 0.1139,0.1305 0.0397,0.0475 0.0873,0.1062 0.1378,0.1723 0.0506,0.066 0.1039,0.1395 0.1446,0.198 0.0408,0.0584 0.0689,0.1019 0.0989,0.1502 0.03,0.0482 0.062,0.1013 0.095,0.164 0.0329,0.0627 0.0669,0.1349 0.0966,0.2017 0.0295,0.0669 0.0547,0.1282 0.0803,0.1966 0.0257,0.0685 0.0518,0.1442 0.0711,0.2029 0.0191,0.0586 0.0314,0.1002 0.0461,0.1547 0.0146,0.0544 0.0316,0.1216 0.0494,0.2019 0.0179,0.0803 0.0365,0.1737 0.0476,0.2326 0.0111,0.0589 0.0148,0.0834 0.0198,0.1338 0.005,0.0504 0.0115,0.1268 0.013,0.203 0.0014,0.0762 -0.0019,0.1523 -0.0033,0.1951 -0.0014,0.0427 -0.0007,0.0523 0,0.0618z"/>
 </g>
</svg>
